# xmcd
#
# Track frame offsets:
#	150
#	13204
#	27343
#	42365
#	56384
#	72252
#	86554
#	101555
#	117960
#	133784
#	149155
#
# Disc length: 2182 seconds
#
# Revision: 1
# Processed by: cddbd v1.5.2PL0 Copyright (c) Steve Scherf et al.
# Submitted via: audiograbber 1.83.01
#
DISCID=9f08840b
DTITLE=George Strait - George Strait: Icon
DYEAR=2011
DGENRE=Country
TTITLE0=Amarillo By Morning
TTITLE1=Ocean Front Property
TTITLE2=All My Ex's Live In Texas
TTITLE3=Love Without End, Amen
TTITLE4=I Cross My Heart
TTITLE5=Check Yes Or No
TTITLE6=I Just Want To Dance With You
TTITLE7=Living And Living Well
TTITLE8=Give It Away
TTITLE9=I Saw God Today
TTITLE10=River Of Love
EXTD=
EXTT0=
EXTT1=
EXTT2=
EXTT3=
EXTT4=
EXTT5=
EXTT6=
EXTT7=
EXTT8=
EXTT9=
EXTT10=
PLAYORDER=
